<svg width="61" height="62" viewBox="0 0 61 62" fill="none" xmlns="http://www.w3.org/2000/svg">
<path d="M44.5 32L49 29V1H12.5V29.844M44.5 32L51 28L59.5 42.5L53.5 46M44.5 32L45 32.7778M53.5 46H49M53.5 46L45 32.7778M49 46L36.5 39L24.5 43.5L21 39L31.5 33.54M49 46C49.1667 47.6667 48.5 50.9 44.5 50.5M44.5 50.5L36 45M44.5 50.5C44.1667 51.5 42.8 53.5 40 53.5M40 53.5L33.5 49M40 53.5C40.5 54.6667 40.4 57 36 57M36 57L32 54M36 57C35.8333 58 34.8 59.8 32 59L31.4167 58.5M17.5 54C15.5 54.4 14.3333 52.1667 14 51L15.5 49.5M17.5 54L21.5 50M17.5 54C18 55.1667 19.4 57.3 21 56.5M21.5 50L18 47L15.5 49.5M21.5 50L25 53M21 56.5L25 53M21 56.5C21.3333 57.5 22.6 59.4 25 59M25 53L28.5 56M25 59L28.5 56M25 59C25.6667 60 27.3 61.8 28.5 61C29.7 60.2 30.9444 59 31.4167 58.5M28.5 56L31.4167 58.5M45 32.7778L33.5 32.5L31.5 33.54M31.5 33.54C27.8333 33.0533 20 32.372 18 33.54L12.5 29.844M17.5 33.9983L9.9106 46.5M9.9106 46.5L9 48L1 43.5L10.5 28.5L12.5 29.844M9.9106 46.5L15.5 49.5M18 28.5H43.5" stroke-width="1.5" stroke="white"/>
<path d="M18.5 23.5H43" stroke="white" stroke-width="1.5" />
<path d="M19 19H43.5" stroke="white" stroke-width="1.5" />
<path d="M37 1V12L40 8L43.5 12.5V1M17.5 5.5V12H24.5V4.5H17.5V5.5Z" stroke="white" stroke-width="1.5" />
</svg>
