<svg width="124" height="160" viewBox="0 0 124 160" fill="none" xmlns="http://www.w3.org/2000/svg">
<path d="M45 73V89M45 89L56.5 97.5H65L75.5 87M45 89H31.5M75.5 87V73M75.5 87H89M31.5 89H28C21.3333 90 7.1 94.3 3.5 103.5V137M31.5 89L42 103.5H78L89 87M89 87H95C105 85.4 116.167 97.3333 120.5 103.5V137M3.5 137V157H37.5M3.5 137H19V117.5M19 117.5H29.5M19 117.5V139V146C24.5 146.167 35.9 148.6 37.5 157M37.5 157H84.5M42 117.5H97H101.5V137M84.5 157H115.5H120.5V137M84.5 157C85.7 147 96.3333 143.167 101.5 142.5V137M101.5 137H120.5M89 109H101.5" stroke="#fff" stroke-width="6"/>
<path d="M50.5 118.5V140.5H71.5V118.5" stroke="#fff" stroke-width="6"/>
<path d="M35 40.5V61.5C37 66.3 47.8333 74.5 53 78H70.5C79.7 71.2 83.3333 62.5 84 59V57.5M35 40.5H37H84V57.5M35 40.5L26.5 37C26.5 38.1667 26.5 41.3 26.5 44.5C26.5 47.7 31.1667 54.5 33.5 57.5M84 57.5C86.8333 55.8333 92.7 51.5 93.5 47.5V37L86 40.5" stroke="#fff" stroke-width="6"/>
<path d="M68 3.50029C59.3333 2.16696 39.7 3.30029 30.5 18.5003V34L38 30H83L90.5 34V14.5C89 12.1667 84.2 7.5 77 7.5" stroke="#fff" stroke-width="6"/>
</svg>
