<svg width="87" height="88" viewBox="0 0 87 88" fill="none" xmlns="http://www.w3.org/2000/svg">
<path d="M69.5 6C73.8333 7.16667 82.3 11 81.5 17" stroke="black" stroke-width="1.5"/>
<path d="M69 41.5L75.5 35.5C78.1667 35.5 82.9 36.8 80.5 42C78.1 47.2 73.1667 51.8333 71 53.5" stroke="black" stroke-width="1.5"/>
<path d="M20 72.5L28 86.5C29.3333 87.1667 32.5 87.7 34.5 84.5C36.5 81.3 33.3333 71.1667 31.5 66.5" stroke="black" stroke-width="1.5"/>
<path d="M13.5 67.4996L1 57.9996C1 55.9996 1.9 52.1996 5.5 52.9996C9.1 53.7996 16.6667 55.6665 20 56.5" stroke="black" stroke-width="1.5"/>
<path d="M45 54L68 86C69.8333 86.6667 73.8 86.8 75 82C76.2 77.2 70.1667 47 67 32.5" stroke="black" stroke-width="1.5"/>
<path d="M32 42L1.49995 18.5C1.16662 16.5 1.69995 12.5 6.49995 12.5C11.3 12.5 39.8333 18.1667 53.5 21" stroke="black" stroke-width="1.5"/>
<path d="M35 17.0003L46 7.50032C48.1667 7.33365 52.1 7.90032 50.5 11.5003C48.9 15.1003 46.1667 17.6668 45 18.5" stroke="black" stroke-width="1.5"/>
<path d="M41 46L43.5 44" stroke="black" stroke-width="1.5"/>
<path d="M46.5 41L53 34.5" stroke="black" stroke-width="1.5"/>
<path d="M56 31.5L62.5 25" stroke="black" stroke-width="1.5"/>
<path d="M84.5 2.49956C82.5 1.49956 76.8 0.599557 70 4.99956L23 51.5C19.5 56.6667 12.1 68.8 10.5 76" stroke="black" stroke-width="1.5"/>
<path d="M84.478 2.01285C85.5256 3.9633 86.5307 9.5542 82.1698 16.3142L35.6866 63.3026C30.4944 66.8298 18.288 74.3072 11.0002 75.9993" stroke="black" stroke-width="1.5"/>
</svg>
