<svg width="89" height="87" viewBox="0 0 89 87" fill="none" xmlns="http://www.w3.org/2000/svg">
<path d="M2 84.4992C6.16667 80.8325 16.7 75.4992 25.5 83.4992C26.6667 82.4995 29.8 80.6 33 81C36.2 81.4 41 83.4995 43 84.4992C45.6667 82.8328 52.2 79.7 57 80.5C61.8 81.3 64 82.8328 64.5 83.4992C67.1667 81.4997 73.8 78.2006 79 81C84.2 83.7994 87.1667 85.1664 88 85.5" stroke="black" stroke-width="1.5"/>
<path d="M9 49V32.5H16.5H80V48.7326M9 49L2 52L6.55357 59.5M9 49L44.5 38M44.5 38L80 48.7326M44.5 38V47.5M80 48.7326L87.5 51L83 59.5M19 80L6.55357 59.5M6.55357 59.5L44.5 47.5M44.5 47.5L83 59.5M44.5 47.5V83.5M83 59.5L71.5 80" stroke="black" stroke-width="1.5"/>
<path d="M31.5 57.5L38 55" stroke="black" stroke-width="1.5"/>
<path d="M32 63.5L38.5 61" stroke="black" stroke-width="1.5"/>
<path d="M52.9999 55.9293L59.606 58.1338" stroke="black" stroke-width="1.5"/>
<path d="M52 61.8468L58.4867 64.3811" stroke="black" stroke-width="1.5"/>
<rect x="25.7" y="0.7" width="19.6" height="15.6" stroke="black" stroke-width="1.4"/>
<rect x="46.7" y="0.7" width="19.6" height="15.6" stroke="black" stroke-width="1.4"/>
<rect x="53.7" y="16.7" width="19.6" height="15.6" stroke="black" stroke-width="1.4"/>
<rect x="34.7" y="16.7" width="19.6" height="15.6" stroke="black" stroke-width="1.4"/>
<rect x="15.7" y="16.7" width="19.6" height="15.6" stroke="black" stroke-width="1.4"/>
</svg>
