<svg width="60" height="60" viewBox="0 0 60 60" fill="none" xmlns="http://www.w3.org/2000/svg">
<circle cx="30" cy="30" r="30" fill="#C3E5FF"/>
<path d="M33.3333 14L33.8741 13.1588L33.3752 12.8381L32.8545 13.1221L33.3333 14ZM15 24L14.5211 23.1221L14 23.4064V24H15ZM45 21.5H46V20.954L45.5408 20.6588L45 21.5ZM15 38.1667H14V38.6591L14.3903 38.9593L15 38.1667ZM25.8333 46.5L25.2236 47.2926L25.7673 47.7109L26.3533 47.3542L25.8333 46.5ZM45 34.8333L45.5199 35.6875L46 35.3953V34.8333H45ZM32.9359 42.1767L33.4559 43.0309L32.9359 42.1767ZM39.6242 24.3048L39.1616 23.4182L39.6242 24.3048ZM32.8545 13.1221L14.5211 23.1221L15.4789 24.8779L33.8122 14.8779L32.8545 13.1221ZM14.4308 24.8222L25.2641 32.3222L26.4025 30.6778L15.5692 23.1778L14.4308 24.8222ZM45.5408 20.6588L33.8741 13.1588L32.7926 14.8412L44.4592 22.3412L45.5408 20.6588ZM14 24.8333V38.1667H16V24.8333H14ZM14.3903 38.9593L25.2236 47.2926L26.443 45.7074L15.6097 37.374L14.3903 38.9593ZM26.8333 46.5V31.5H24.8333V46.5H26.8333ZM46 34.8333V21.5H44V34.8333H46ZM26.2959 32.3866L33.3985 28.6809L32.4734 26.9077L25.3708 30.6134L26.2959 32.3866ZM26.3533 47.3542L33.4559 43.0309L32.416 41.3225L25.3134 45.6458L26.3533 47.3542ZM31.9359 27.7943V42.1767H33.9359V27.7943H31.9359ZM33.3985 28.6809L40.0867 25.1914L39.1616 23.4182L32.4734 26.9077L33.3985 28.6809ZM40.0867 25.1914L45.4626 22.3866L44.5374 20.6134L39.1616 23.4182L40.0867 25.1914ZM33.4559 43.0309L40.1441 38.9598L39.1042 37.2514L32.416 41.3225L33.4559 43.0309ZM40.1441 38.9598L45.5199 35.6875L44.4801 33.9791L39.1042 37.2514L40.1441 38.9598ZM38.6242 24.3048V38.1056H40.6242V24.3048H38.6242ZM14 24V24.8333H16V24H14Z" fill="#0563AB"/>
</svg>
