<svg width="70" height="71" viewBox="0 0 70 71" fill="none" xmlns="http://www.w3.org/2000/svg">
<circle cx="35" cy="35.5" r="35" fill="#0563AB"/>
<path d="M25.8854 46.4375C22.5514 47.188 20.4167 48.3412 20.4167 49.6343C20.4167 51.8959 26.9458 53.7292 35 53.7292C43.0542 53.7292 49.5833 51.8959 49.5833 49.6343C49.5833 48.3412 47.4485 47.188 44.1146 46.4375" stroke="white" stroke-width="1.5" stroke-linecap="round"/>
<path d="M37.2921 45.5143C36.6773 46.1064 35.8555 46.4374 35.0004 46.4374C34.1451 46.4374 33.3233 46.1064 32.7084 45.5143C27.0782 40.0587 19.5329 33.9641 23.2125 25.1161C25.202 20.332 29.9778 17.2708 35.0004 17.2708C40.0229 17.2708 44.7986 20.332 46.7881 25.1161C50.4631 33.953 42.9363 40.0774 37.2921 45.5143Z" fill="white"/>
<path d="M39.5572 30.0312C39.5572 32.5481 37.5168 34.5885 34.9999 34.5885C32.483 34.5885 30.4426 32.5481 30.4426 30.0312C30.4426 27.5142 32.483 25.4739 34.9999 25.4739C37.5168 25.4739 39.5572 27.5142 39.5572 30.0312Z" fill="#0563AB" stroke="#0563AB" stroke-width="1.5"/>
</svg>
