<svg width="70" height="71" viewBox="0 0 70 71" fill="none" xmlns="http://www.w3.org/2000/svg">
<circle cx="35" cy="35.5" r="35" fill="#0563AB"/>
<path d="M44.1667 50.1666C46.1917 50.1666 47.8333 48.525 47.8333 46.4999C47.8333 44.4749 46.1917 42.8333 44.1667 42.8333C42.1416 42.8333 40.5 44.4749 40.5 46.4999C40.5 48.525 42.1416 50.1666 44.1667 50.1666Z" stroke="white" stroke-width="1.5"/>
<path d="M25.8333 50.1666C27.8584 50.1666 29.5 48.525 29.5 46.4999C29.5 44.4749 27.8584 42.8333 25.8333 42.8333C23.8083 42.8333 22.1667 44.4749 22.1667 46.4999C22.1667 48.525 23.8083 50.1666 25.8333 50.1666Z" stroke="white" stroke-width="1.5"/>
<path d="M33.1667 44.6666H40.5M37.75 26.3333H39.4786C41.881 26.3333 43.0824 26.3333 44.1008 26.9099C45.1193 27.4865 45.7983 28.5511 47.1565 30.6802C48.1087 32.1732 49.1084 33.2568 50.514 34.221C51.9292 35.1916 52.6022 35.666 52.9756 36.4276C53.3333 37.1569 53.3333 38.0208 53.3333 39.7483C53.3333 42.0259 53.3333 43.1647 52.6935 43.8883C52.666 43.9195 52.6379 43.9498 52.609 43.9791C51.9354 44.6666 50.8756 44.6666 48.7555 44.6666H47.8333" stroke="white" stroke-width="1.5" stroke-linecap="round" stroke-linejoin="round"/>
<path d="M36.8333 26.3333L38.656 30.8901C39.5491 33.1228 39.9957 34.2391 40.9268 34.8694C41.858 35.4999 43.0603 35.4999 45.4649 35.4999H51.5" stroke="white" stroke-width="1.5" stroke-linecap="round" stroke-linejoin="round"/>
<path d="M21.9275 44.6666C19.4475 44.6666 18.2075 44.6666 17.4371 43.8612C16.6667 43.0556 16.6667 41.7593 16.6667 39.1666V26.3333C16.6667 23.7405 16.6667 22.4442 17.4371 21.6387C18.2075 20.8333 19.4475 20.8333 21.9275 20.8333H31.5724C34.0525 20.8333 35.2924 20.8333 36.063 21.6387C36.8333 22.4442 36.8333 23.7405 36.8333 26.3333V44.6666H28.942" stroke="white" stroke-width="1.5" stroke-linecap="round" stroke-linejoin="round"/>
</svg>
