<svg width="70" height="71" viewBox="0 0 70 71" fill="none" xmlns="http://www.w3.org/2000/svg">
<circle cx="35" cy="35.5" r="35" fill="#0563AB"/>
<path d="M16.6667 53.8334H36.8333C45.9461 53.8334 53.3333 46.4461 53.3333 37.3334C53.3333 28.2207 45.9461 20.8334 36.8333 20.8334C28.3403 20.8334 21.2453 27.2501 20.3333 35.5" stroke="white" stroke-width="1.5" stroke-linecap="round"/>
<path d="M46.9167 23.5833L48.75 21.75M23.0833 21.75L24.9167 23.5833" stroke="white" stroke-width="1.5" stroke-linecap="round" stroke-linejoin="round"/>
<path d="M43.2502 30L37.8615 35.3888M37.8615 35.3888C37.3637 34.8911 36.6762 34.5833 35.9169 34.5833C34.3981 34.5833 33.1669 35.8145 33.1669 37.3333C33.1669 38.8522 34.3981 40.0833 35.9169 40.0833C37.4356 40.0833 38.6669 38.8522 38.6669 37.3333C38.6669 36.5739 38.359 35.8864 37.8615 35.3888Z" stroke="white" stroke-width="1.5" stroke-linecap="round"/>
<path d="M35.9167 19.9166V17.1666" stroke="white" stroke-width="1.5" stroke-linecap="round" stroke-linejoin="round"/>
<path d="M32.25 17.1666H39.5833" stroke="white" stroke-width="1.5" stroke-linecap="round" stroke-linejoin="round"/>
<path d="M16.6667 41H22.1667" stroke="white" stroke-width="1.5" stroke-linecap="round" stroke-linejoin="round"/>
<path d="M16.6667 48.3334H25.8333" stroke="white" stroke-width="1.5" stroke-linecap="round" stroke-linejoin="round"/>
</svg>
