<svg width="70" height="71" viewBox="0 0 70 71" fill="none" xmlns="http://www.w3.org/2000/svg">
<circle cx="35" cy="35.5" r="35" fill="#0563AB"/>
<path d="M40.5 41C40.5 42.5187 41.7313 43.75 43.25 43.75C44.7687 43.75 46 42.5187 46 41C46 39.4813 44.7687 38.25 43.25 38.25C41.7313 38.25 40.5 39.4813 40.5 41Z" stroke="white" stroke-width="1.5"/>
<path d="M40.507 27.8047C30.5563 27.1151 22.3586 25.6386 18.5 24.4995V41.1122C18.5 44.7685 18.5 46.5968 19.6359 48.0878C20.7718 49.5789 22.3303 50 25.4472 50.8422C30.4831 52.2029 35.7764 53.0132 40.5194 53.4767C45.4352 53.957 47.8929 54.1972 49.6966 52.549C51.5 50.9009 51.5 48.2534 51.5 42.958V39.2664C51.5 34.124 51.5 31.5529 50.0203 29.9571C48.5408 28.3614 45.8629 28.1758 40.507 27.8047Z" stroke="white" stroke-width="1.5" stroke-linecap="round" stroke-linejoin="round"/>
<path d="M45.314 28.1666C46.0064 25.5573 46.6331 20.8117 44.7662 18.4553C43.5829 16.9618 41.8242 17.1053 40.1 17.2569C31.0362 18.0541 24.6333 19.6734 21.0539 20.7735C19.5147 21.2465 18.5 22.7495 18.5 24.4274" stroke="white" stroke-width="1.5" stroke-linejoin="round"/>
</svg>
