<?xml version="1.0" encoding="UTF-8"?>
<!DOCTYPE svg PUBLIC "-//W3C//DTD SVG 1.1//EN" "http://www.w3.org/Graphics/SVG/1.1/DTD/svg11.dtd">
<svg xmlns="http://www.w3.org/2000/svg" version="1.1" width="1429px" height="388px" style="shape-rendering:geometricPrecision; text-rendering:geometricPrecision; image-rendering:optimizeQuality; fill-rule:evenodd; clip-rule:evenodd" xmlns:xlink="http://www.w3.org/1999/xlink">
<g><path style="opacity:1" fill="#f9f9f9" d="M 345.5,-0.5 C 618.833,-0.5 892.167,-0.5 1165.5,-0.5C 1165.5,103.5 1165.5,207.5 1165.5,311.5C 911.167,311.5 656.833,311.5 402.5,311.5C 402.5,336.833 402.5,362.167 402.5,387.5C 268.167,387.5 133.833,387.5 -0.5,387.5C -0.5,261.833 -0.5,136.167 -0.5,10.5C 114.833,10.5 230.167,10.5 345.5,10.5C 345.5,6.83333 345.5,3.16667 345.5,-0.5 Z"/></g>
<g><path style="opacity:1" fill="#026f2a" d="M 1058.5,55.5 C 1085.19,66.6913 1103.03,86.0246 1112,113.5C 1112.5,117.821 1112.67,122.154 1112.5,126.5C 1095.83,126.667 1079.16,126.5 1062.5,126C 1058.78,106.943 1047.45,94.9433 1028.5,90C 998.238,83.5504 976.405,94.0504 963,121.5C 961.175,127.797 959.675,134.131 958.5,140.5C 957.039,147.276 956.372,154.276 956.5,161.5C 956.501,166.013 956.834,170.347 957.5,174.5C 958.566,182.019 959.566,189.686 960.5,197.5C 959.732,196.737 959.232,195.737 959,194.5C 961.644,217.151 973.477,232.984 994.5,242C 1013.82,248.002 1031.82,245.336 1048.5,234C 1055.97,226.559 1060.97,217.725 1063.5,207.5C 1078.8,206.061 1094.13,205.395 1109.5,205.5C 1107.36,225.943 1098.7,243.109 1083.5,257C 1083.73,257.399 1084.06,257.565 1084.5,257.5C 1076.9,265.314 1067.9,271.147 1057.5,275C 1023.46,286.424 990.124,284.757 957.5,270C 952.044,267.026 947.044,263.526 942.5,259.5C 938.645,254.133 934.145,249.133 929,244.5C 911.736,221.15 903.236,194.817 903.5,165.5C 903.425,118.271 923.425,82.9372 963.5,59.5C 994.456,46.1502 1025.79,45.1502 1057.5,56.5C 1058.11,56.3764 1058.44,56.0431 1058.5,55.5 Z"/></g>
<g><path style="opacity:1" fill="#006f2a" d="M 886.5,136.5 C 883.787,152.923 876.121,166.59 863.5,177.5C 863.44,176.957 863.107,176.624 862.5,176.5C 851.84,184.661 839.84,189.827 826.5,192C 804.532,193.254 782.532,193.921 760.5,194C 759.667,194.833 758.833,195.667 758,196.5C 757.5,223.165 757.333,249.831 757.5,276.5C 742.167,276.5 726.833,276.5 711.5,276.5C 713.193,201.516 713.859,126.516 713.5,51.5C 746.835,51.3333 780.168,51.5 813.5,52C 863.486,58.1452 887.82,86.3118 886.5,136.5 Z"/></g>
<g><path style="opacity:1" fill="#d4b22b" d="M 350.5,62.5 C 350.5,66.8333 350.5,71.1667 350.5,75.5C 348.824,76.1834 348.157,77.5168 348.5,79.5C 347.007,80.4451 345.507,81.4451 344,82.5C 343.127,82.2645 342.293,81.9312 341.5,81.5C 337.933,85.2724 332.933,87.7724 326.5,89C 324.359,90.3076 322.359,91.8076 320.5,93.5C 318.776,92.3387 317.11,92.5053 315.5,94C 315.833,94.3333 316.167,94.6667 316.5,95C 310.791,97.3341 305.124,99.6674 299.5,102C 300.458,103.147 300.125,104.147 298.5,105C 294.07,106.38 289.737,108.047 285.5,110C 285.07,110.92 284.736,111.753 284.5,112.5C 283.833,111.833 283.167,111.167 282.5,110.5C 281.289,111.274 281.289,112.107 282.5,113C 280.671,113.273 279.171,114.107 278,115.5C 277.586,115.043 277.086,114.709 276.5,114.5C 274.562,117.049 272.062,118.716 269,119.5C 268.667,119.167 268.333,118.833 268,118.5C 266.758,120.541 264.925,121.707 262.5,122C 263.928,125.474 263.428,125.974 261,123.5C 260.517,124.448 260.351,125.448 260.5,126.5C 257.353,128.078 254.02,129.578 250.5,131C 249.299,131.903 248.465,133.069 248,134.5C 247.623,133.058 246.79,132.058 245.5,131.5C 245.405,126.113 245.905,120.78 247,115.5C 247.333,116.167 247.667,116.833 248,117.5C 248.911,114.367 250.744,113.367 253.5,114.5C 253.833,113.167 254.167,111.833 254.5,110.5C 256.059,109.926 257.559,109.26 259,108.5C 259.333,108.833 259.667,109.167 260,109.5C 267.035,104.527 274.535,100.193 282.5,96.5C 283.086,96.7093 283.586,97.0426 284,97.5C 285.69,94.9763 287.857,92.9763 290.5,91.5C 292.737,91.6938 294.903,91.6938 297,91.5C 297.91,87.7096 300.076,86.3763 303.5,87.5C 304.719,86.7366 305.719,85.7366 306.5,84.5C 307.167,84.8333 307.833,85.1667 308.5,85.5C 310.788,83.3368 313.788,81.3368 317.5,79.5C 319.28,80.9148 320.946,80.7481 322.5,79C 321.66,77.3335 322.16,77.1669 324,78.5C 325.487,77.7471 325.654,76.9138 324.5,76C 330.179,74.166 335.846,72.4994 341.5,71C 342.308,69.2942 343.641,68.4609 345.5,68.5C 345.351,69.552 345.517,70.552 346,71.5C 346.494,69.8659 346.66,68.1992 346.5,66.5C 347.5,66.5 348.5,66.5 349.5,66.5C 349.232,64.901 349.566,63.5676 350.5,62.5 Z"/></g>
<g><path style="opacity:1" fill="#bc902a" d="M 348.5,40.5 C 350.436,44.7147 351.103,49.3814 350.5,54.5C 349.883,54.6107 349.383,54.944 349,55.5C 348.333,53.5 347.667,51.5 347,49.5C 347.126,54.6836 345.959,55.3503 343.5,51.5C 340.764,53.4712 337.764,54.9712 334.5,56C 335.696,56.6543 335.696,57.1543 334.5,57.5C 333.707,57.0688 332.873,56.7355 332,56.5C 327.987,58.4512 323.82,60.1178 319.5,61.5C 318.833,61.1667 318.167,60.8333 317.5,60.5C 310.592,63.9178 303.592,67.0845 296.5,70C 293.173,71.8139 290.006,73.9806 287,76.5C 286.586,76.0426 286.086,75.7093 285.5,75.5C 279.712,78.5389 274.212,81.2056 269,83.5C 268.667,82.8333 268.333,82.1667 268,81.5C 267.059,83.0614 265.892,84.3947 264.5,85.5C 263.808,84.9747 263.308,84.3081 263,83.5C 260.5,85.3333 258.333,87.5 256.5,90C 253.341,90.8587 250.341,92.0254 247.5,93.5C 247.709,94.086 248.043,94.586 248.5,95C 246.757,97.8526 245.59,101.019 245,104.5C 244.802,102.618 244.302,100.952 243.5,99.5C 243.5,94.8333 243.5,90.1667 243.5,85.5C 255.383,81.9288 266.716,77.0954 277.5,71C 284.032,69.0468 290.365,66.7135 296.5,64C 313.814,55.7818 331.148,47.9484 348.5,40.5 Z"/></g>
<g><path style="opacity:1" fill="#c9a12b" d="M 350.5,54.5 C 350.5,57.1667 350.5,59.8333 350.5,62.5C 349.566,63.5676 349.232,64.901 349.5,66.5C 348.5,66.5 347.5,66.5 346.5,66.5C 346.66,68.1992 346.494,69.8659 346,71.5C 345.517,70.552 345.351,69.552 345.5,68.5C 343.641,68.4609 342.308,69.2942 341.5,71C 335.846,72.4994 330.179,74.166 324.5,76C 325.654,76.9138 325.487,77.7471 324,78.5C 322.16,77.1669 321.66,77.3335 322.5,79C 320.946,80.7481 319.28,80.9148 317.5,79.5C 313.788,81.3368 310.788,83.3368 308.5,85.5C 307.833,85.1667 307.167,84.8333 306.5,84.5C 305.719,85.7366 304.719,86.7366 303.5,87.5C 300.076,86.3763 297.91,87.7096 297,91.5C 294.903,91.6938 292.737,91.6938 290.5,91.5C 287.857,92.9763 285.69,94.9763 284,97.5C 283.586,97.0426 283.086,96.7093 282.5,96.5C 274.535,100.193 267.035,104.527 260,109.5C 259.667,109.167 259.333,108.833 259,108.5C 257.559,109.26 256.059,109.926 254.5,110.5C 254.167,111.833 253.833,113.167 253.5,114.5C 250.744,113.367 248.911,114.367 248,117.5C 247.667,116.833 247.333,116.167 247,115.5C 245.905,120.78 245.405,126.113 245.5,131.5C 245.5,132.167 245.167,132.5 244.5,132.5C 244.823,126.31 244.49,120.31 243.5,114.5C 243.5,109.5 243.5,104.5 243.5,99.5C 244.302,100.952 244.802,102.618 245,104.5C 245.59,101.019 246.757,97.8526 248.5,95C 248.043,94.586 247.709,94.086 247.5,93.5C 250.341,92.0254 253.341,90.8587 256.5,90C 258.333,87.5 260.5,85.3333 263,83.5C 263.308,84.3081 263.808,84.9747 264.5,85.5C 265.892,84.3947 267.059,83.0614 268,81.5C 268.333,82.1667 268.667,82.8333 269,83.5C 274.212,81.2056 279.712,78.5389 285.5,75.5C 286.086,75.7093 286.586,76.0426 287,76.5C 290.006,73.9806 293.173,71.8139 296.5,70C 303.592,67.0845 310.592,63.9178 317.5,60.5C 318.167,60.8333 318.833,61.1667 319.5,61.5C 323.82,60.1178 327.987,58.4512 332,56.5C 332.873,56.7355 333.707,57.0688 334.5,57.5C 335.696,57.1543 335.696,56.6543 334.5,56C 337.764,54.9712 340.764,53.4712 343.5,51.5C 345.959,55.3503 347.126,54.6836 347,49.5C 347.667,51.5 348.333,53.5 349,55.5C 349.383,54.944 349.883,54.6107 350.5,54.5 Z"/></g>
<g><path style="opacity:1" fill="#a4c9b0" d="M 520.5,49.5 C 573.664,48.5011 626.997,48.1677 680.5,48.5C 680.5,63.5 680.5,78.5 680.5,93.5C 645.167,93.5 609.833,93.5 574.5,93.5C 574.5,110.833 574.5,128.167 574.5,145.5C 573.338,128.005 573.171,110.338 574,92.5C 582.081,91.5175 590.248,91.1842 598.5,91.5C 598.833,91.5 599.167,91.5 599.5,91.5C 626.167,91.5 652.833,91.5 679.5,91.5C 679.5,77.5 679.5,63.5 679.5,49.5C 626.5,49.5 573.5,49.5 520.5,49.5 Z"/></g>
<g><path style="opacity:1" fill="#f5f7f6" d="M 760.5,91.5 C 775.873,91.1206 791.206,91.6206 806.5,93C 827.256,98.5035 835.589,111.837 831.5,133C 826.141,148.33 815.474,156.996 799.5,159C 786.487,159.833 773.487,159.666 760.5,158.5C 759.168,136.137 759.168,113.804 760.5,91.5 Z"/></g>
<g><path style="opacity:1" fill="#e0c42a" d="M 348.5,79.5 C 348.863,91.21 348.53,100.21 347.5,106.5C 344.359,108.24 341.026,109.906 337.5,111.5C 336.914,111.291 336.414,110.957 336,110.5C 334.497,114.81 332.83,115.144 331,111.5C 330.517,112.448 330.351,113.448 330.5,114.5C 326.469,116.843 322.135,118.677 317.5,120C 317.957,120.414 318.291,120.914 318.5,121.5C 316.844,123.329 314.844,124.663 312.5,125.5C 312.709,126.086 313.043,126.586 313.5,127C 312.258,127.311 311.258,126.811 310.5,125.5C 309.646,126.522 308.646,127.355 307.5,128C 307.833,128.333 308.167,128.667 308.5,129C 305.529,129.794 302.529,130.461 299.5,131C 300.711,132.113 300.711,133.28 299.5,134.5C 298.397,134.998 297.397,135.331 296.5,135.5C 298.762,137.508 298.262,137.841 295,136.5C 293.691,138.891 292.691,138.891 292,136.5C 290,139.167 287.667,141.5 285,143.5C 284.167,142.5 283.333,141.5 282.5,140.5C 281.167,142.167 279.833,143.833 278.5,145.5C 276.675,144.429 275.508,145.096 275,147.5C 273.927,146.72 272.76,146.887 271.5,148C 265.935,152.038 260.435,156.204 255,160.5C 254.692,159.692 254.192,159.025 253.5,158.5C 253.032,161.678 251.199,164.345 248,166.5C 247.15,163.591 245.983,160.924 244.5,158.5C 244.5,149.833 244.5,141.167 244.5,132.5C 245.167,132.5 245.5,132.167 245.5,131.5C 246.79,132.058 247.623,133.058 248,134.5C 248.465,133.069 249.299,131.903 250.5,131C 254.02,129.578 257.353,128.078 260.5,126.5C 260.351,125.448 260.517,124.448 261,123.5C 263.428,125.974 263.928,125.474 262.5,122C 264.925,121.707 266.758,120.541 268,118.5C 268.333,118.833 268.667,119.167 269,119.5C 272.062,118.716 274.562,117.049 276.5,114.5C 277.086,114.709 277.586,115.043 278,115.5C 279.171,114.107 280.671,113.273 282.5,113C 281.289,112.107 281.289,111.274 282.5,110.5C 283.167,111.167 283.833,111.833 284.5,112.5C 284.736,111.753 285.07,110.92 285.5,110C 289.737,108.047 294.07,106.38 298.5,105C 300.125,104.147 300.458,103.147 299.5,102C 305.124,99.6674 310.791,97.3341 316.5,95C 316.167,94.6667 315.833,94.3333 315.5,94C 317.11,92.5053 318.776,92.3387 320.5,93.5C 322.359,91.8076 324.359,90.3076 326.5,89C 332.933,87.7724 337.933,85.2724 341.5,81.5C 342.293,81.9312 343.127,82.2645 344,82.5C 345.507,81.4451 347.007,80.4451 348.5,79.5 Z"/></g>
<g><path style="opacity:1" fill="#e5cc2a" d="M 350.5,75.5 C 350.5,101.5 350.5,127.5 350.5,153.5C 350.167,153.5 349.833,153.5 349.5,153.5C 349.719,152.325 349.386,151.325 348.5,150.5C 347.833,152.5 347.167,154.5 346.5,156.5C 343.833,156.167 341.167,155.833 338.5,155.5C 337.107,156.863 335.441,157.696 333.5,158C 334.641,158.741 334.641,159.575 333.5,160.5C 332.092,161.243 330.759,162.077 329.5,163C 325.31,162.266 322.31,163.933 320.5,168C 318.236,168.236 316.069,168.736 314,169.5C 313.667,168.833 313.333,168.167 313,167.5C 312.751,168.624 312.251,169.624 311.5,170.5C 305.664,172.021 300.664,174.854 296.5,179C 292.336,179.449 288.669,180.949 285.5,183.5C 282.504,182.167 280.837,183.167 280.5,186.5C 277.266,187.541 274.099,188.874 271,190.5C 268.944,189.798 267.111,190.465 265.5,192.5C 264.197,191.282 263.197,191.615 262.5,193.5C 260.554,191.913 259.054,192.246 258,194.5C 257.667,194.167 257.333,193.833 257,193.5C 254.688,193.955 252.688,194.955 251,196.5C 249.442,195.655 248.442,196.321 248,198.5C 247.667,197.167 247.333,195.833 247,194.5C 246.667,197.167 246.333,199.833 246,202.5C 245.617,203.056 245.117,203.389 244.5,203.5C 244.5,188.5 244.5,173.5 244.5,158.5C 245.983,160.924 247.15,163.591 248,166.5C 251.199,164.345 253.032,161.678 253.5,158.5C 254.192,159.025 254.692,159.692 255,160.5C 260.435,156.204 265.935,152.038 271.5,148C 272.76,146.887 273.927,146.72 275,147.5C 275.508,145.096 276.675,144.429 278.5,145.5C 279.833,143.833 281.167,142.167 282.5,140.5C 283.333,141.5 284.167,142.5 285,143.5C 287.667,141.5 290,139.167 292,136.5C 292.691,138.891 293.691,138.891 295,136.5C 298.262,137.841 298.762,137.508 296.5,135.5C 297.397,135.331 298.397,134.998 299.5,134.5C 300.711,133.28 300.711,132.113 299.5,131C 302.529,130.461 305.529,129.794 308.5,129C 308.167,128.667 307.833,128.333 307.5,128C 308.646,127.355 309.646,126.522 310.5,125.5C 311.258,126.811 312.258,127.311 313.5,127C 313.043,126.586 312.709,126.086 312.5,125.5C 314.844,124.663 316.844,123.329 318.5,121.5C 318.291,120.914 317.957,120.414 317.5,120C 322.135,118.677 326.469,116.843 330.5,114.5C 330.351,113.448 330.517,112.448 331,111.5C 332.83,115.144 334.497,114.81 336,110.5C 336.414,110.957 336.914,111.291 337.5,111.5C 341.026,109.906 344.359,108.24 347.5,106.5C 348.53,100.21 348.863,91.21 348.5,79.5C 348.157,77.5168 348.824,76.1834 350.5,75.5 Z"/></g>
<g><path style="opacity:1" fill="#19621f" d="M 1058.5,55.5 C 1058.44,56.0431 1058.11,56.3764 1057.5,56.5C 1025.79,45.1502 994.456,46.1502 963.5,59.5C 923.425,82.9372 903.425,118.271 903.5,165.5C 903.236,194.817 911.736,221.15 929,244.5C 934.145,249.133 938.645,254.133 942.5,259.5C 938.578,257.085 935.078,254.085 932,250.5C 917.748,234.329 908.581,215.662 904.5,194.5C 902.776,178.56 902.109,162.56 902.5,146.5C 908.954,100.865 933.62,69.3648 976.5,52C 1001.87,45.942 1027.21,46.1087 1052.5,52.5C 1054.44,53.6892 1056.44,54.6892 1058.5,55.5 Z"/></g>
<g><path style="opacity:1" fill="#5c9e70" d="M 798.5,49.5 C 769.5,49.5 740.5,49.5 711.5,49.5C 711.832,103.003 711.499,156.336 710.5,209.5C 710.5,155.833 710.5,102.167 710.5,48.5C 740.005,48.1686 769.338,48.5019 798.5,49.5 Z"/></g>
<g><path style="opacity:1" fill="#f1e9c4" d="M 348.5,40.5 C 349.209,39.596 350.209,39.2627 351.5,39.5C 351.832,92.0027 351.499,144.336 350.5,196.5C 350.5,189.5 350.5,182.5 350.5,175.5C 350.5,168.167 350.5,160.833 350.5,153.5C 350.5,127.5 350.5,101.5 350.5,75.5C 350.5,71.1667 350.5,66.8333 350.5,62.5C 350.5,59.8333 350.5,57.1667 350.5,54.5C 351.103,49.3814 350.436,44.7147 348.5,40.5 Z"/></g>
<g><path style="opacity:1" fill="#dbbc2a" d="M 349.5,153.5 C 349.167,156.833 348.833,160.167 348.5,163.5C 347.71,164.609 347.21,165.942 347,167.5C 346.431,163.639 345.598,163.639 344.5,167.5C 342.336,168.414 340.336,169.581 338.5,171C 326.497,175.85 314.83,181.35 303.5,187.5C 302.914,187.291 302.414,186.957 302,186.5C 301.716,188.886 300.716,189.552 299,188.5C 294.193,191.874 289.193,194.874 284,197.5C 283.692,196.692 283.192,196.025 282.5,195.5C 281.8,198.015 280.467,198.682 278.5,197.5C 276.5,199.167 274.5,200.833 272.5,202.5C 270.936,201.814 269.269,201.981 267.5,203C 265.759,204.62 263.925,206.12 262,207.5C 261.667,206.833 261.333,206.167 261,205.5C 257.118,206.796 253.284,208.296 249.5,210C 248.953,210.925 248.287,211.758 247.5,212.5C 246.473,211.209 245.473,211.209 244.5,212.5C 244.5,209.5 244.5,206.5 244.5,203.5C 245.117,203.389 245.617,203.056 246,202.5C 246.333,199.833 246.667,197.167 247,194.5C 247.333,195.833 247.667,197.167 248,198.5C 248.442,196.321 249.442,195.655 251,196.5C 252.688,194.955 254.688,193.955 257,193.5C 257.333,193.833 257.667,194.167 258,194.5C 259.054,192.246 260.554,191.913 262.5,193.5C 263.197,191.615 264.197,191.282 265.5,192.5C 267.111,190.465 268.944,189.798 271,190.5C 274.099,188.874 277.266,187.541 280.5,186.5C 280.837,183.167 282.504,182.167 285.5,183.5C 288.669,180.949 292.336,179.449 296.5,179C 300.664,174.854 305.664,172.021 311.5,170.5C 312.251,169.624 312.751,168.624 313,167.5C 313.333,168.167 313.667,168.833 314,169.5C 316.069,168.736 318.236,168.236 320.5,168C 322.31,163.933 325.31,162.266 329.5,163C 330.759,162.077 332.092,161.243 333.5,160.5C 334.641,159.575 334.641,158.741 333.5,158C 335.441,157.696 337.107,156.863 338.5,155.5C 341.167,155.833 343.833,156.167 346.5,156.5C 347.167,154.5 347.833,152.5 348.5,150.5C 349.386,151.325 349.719,152.325 349.5,153.5 Z"/></g>
<g><path style="opacity:1" fill="#89b18f" d="M 902.5,146.5 C 902.109,162.56 902.776,178.56 904.5,194.5C 902.941,191.132 902.108,187.465 902,183.5C 901.173,170.993 901.34,158.66 902.5,146.5 Z"/></g>
<g><path style="opacity:1" fill="#89b290" d="M 958.5,140.5 C 957.819,151.821 957.486,163.154 957.5,174.5C 956.834,170.347 956.501,166.013 956.5,161.5C 956.372,154.276 957.039,147.276 958.5,140.5 Z"/></g>
<g><path style="opacity:1" fill="#016f2b" d="M 227.5,161.5 C 228.832,171.144 229.499,181.144 229.5,191.5C 229.5,201.672 229.166,211.672 228.5,221.5C 228.667,205.83 228.5,190.163 228,174.5C 226.159,231.486 225.326,288.486 225.5,345.5C 198.167,345.5 170.833,345.5 143.5,345.5C 143.172,297.791 143.505,250.124 144.5,202.5C 144.043,201.702 143.376,201.369 142.5,201.5C 151.217,196.2 160.217,191.367 169.5,187C 184.123,180.906 198.456,174.239 212.5,167C 217.645,165.387 222.645,163.553 227.5,161.5 Z"/></g>
<g><path style="opacity:1" fill="#e3cf69" d="M 243.5,114.5 C 244.49,120.31 244.823,126.31 244.5,132.5C 244.5,141.167 244.5,149.833 244.5,158.5C 244.5,173.5 244.5,188.5 244.5,203.5C 244.5,206.5 244.5,209.5 244.5,212.5C 244.5,214.833 244.5,217.167 244.5,219.5C 244.173,229.015 244.506,238.348 245.5,247.5C 245.44,248.043 245.107,248.376 244.5,248.5C 243.5,203.838 243.167,159.172 243.5,114.5 Z"/></g>
<g><path style="opacity:1" fill="#cca62b" d="M 349.5,153.5 C 349.833,153.5 350.167,153.5 350.5,153.5C 350.5,160.833 350.5,168.167 350.5,175.5C 348.763,178.008 347.93,181.008 348,184.5C 347.259,185.641 346.425,185.641 345.5,184.5C 344.672,187.327 343.006,189.493 340.5,191C 336.283,193.294 331.783,194.794 327,195.5C 325.726,196.535 324.56,197.702 323.5,199C 319.573,200.466 315.573,201.633 311.5,202.5C 311.881,204.942 311.214,205.609 309.5,204.5C 306.601,205.642 303.601,206.308 300.5,206.5C 300.5,207.833 300.5,209.167 300.5,210.5C 299.448,210.649 298.448,210.483 297.5,210C 298.888,209.111 298.722,208.611 297,208.5C 295.174,209.01 295.007,209.844 296.5,211C 294.552,211.983 292.718,213.15 291,214.5C 290.586,214.043 290.086,213.709 289.5,213.5C 287.54,214.723 285.707,216.056 284,217.5C 283.667,217.167 283.333,216.833 283,216.5C 276.663,220.383 270.163,223.883 263.5,227C 258.599,228.814 253.599,230.314 248.5,231.5C 246.73,228.807 246.063,225.807 246.5,222.5C 247.222,222.918 247.722,223.584 248,224.5C 248.791,222.396 250.291,221.063 252.5,220.5C 260.754,218.034 268.754,215.034 276.5,211.5C 276.354,209.058 277.187,208.391 279,209.5C 283.047,207.893 286.88,205.893 290.5,203.5C 292.718,204.188 294.218,203.188 295,200.5C 296.998,201.271 298.665,200.605 300,198.5C 300.333,198.833 300.667,199.167 301,199.5C 301.879,196.654 303.546,195.987 306,197.5C 309.357,194.656 313.024,192.323 317,190.5C 317.561,191.022 318.228,191.355 319,191.5C 320.626,190.711 322.126,189.711 323.5,188.5C 325.784,189.416 326.951,188.416 327,185.5C 328.049,186.517 329.216,186.684 330.5,186C 332.403,183.595 334.736,181.761 337.5,180.5C 338.086,180.709 338.586,181.043 339,181.5C 341.333,179.833 343.667,178.167 346,176.5C 346.333,177.5 346.667,178.5 347,179.5C 348.191,174.233 348.691,168.899 348.5,163.5C 348.833,160.167 349.167,156.833 349.5,153.5 Z"/></g>
<g><path style="opacity:1" fill="#14631e" d="M 520.5,49.5 C 573.5,49.5 626.5,49.5 679.5,49.5C 679.5,63.5 679.5,77.5 679.5,91.5C 652.833,91.5 626.167,91.5 599.5,91.5C 609.235,90.822 619.068,90.1553 629,89.5C 644.759,90.6573 660.592,90.824 676.5,90C 677.489,76.9128 677.823,63.7461 677.5,50.5C 625.833,50.5 574.167,50.5 522.5,50.5C 522.5,125.5 522.5,200.5 522.5,275.5C 538.833,275.5 555.167,275.5 571.5,275.5C 571.333,245.498 571.5,215.498 572,185.5C 572.75,184.874 573.584,184.374 574.5,184C 603.831,183.5 633.165,183.333 662.5,183.5C 662.5,171.833 662.5,160.167 662.5,148.5C 632.745,148.984 603.079,148.484 573.5,147C 573,146.5 572.5,146 572,145.5C 571.333,127.833 571.333,110.167 572,92.5C 572.5,92 573,91.5 573.5,91C 582.01,90.1768 590.344,90.3434 598.5,91.5C 590.248,91.1842 582.081,91.5175 574,92.5C 573.171,110.338 573.338,128.005 574.5,145.5C 604.329,146.498 634.329,146.831 664.5,146.5C 664.5,159.5 664.5,172.5 664.5,185.5C 634.329,185.169 604.329,185.502 574.5,186.5C 573.502,216.662 573.169,246.995 573.5,277.5C 555.833,277.5 538.167,277.5 520.5,277.5C 520.5,201.5 520.5,125.5 520.5,49.5 Z"/></g>
<g><path style="opacity:1" fill="#006f2a" d="M 599.5,91.5 C 599.167,91.5 598.833,91.5 598.5,91.5C 590.344,90.3434 582.01,90.1768 573.5,91C 573,91.5 572.5,92 572,92.5C 571.333,110.167 571.333,127.833 572,145.5C 572.5,146 573,146.5 573.5,147C 603.079,148.484 632.745,148.984 662.5,148.5C 662.5,160.167 662.5,171.833 662.5,183.5C 633.165,183.333 603.831,183.5 574.5,184C 573.584,184.374 572.75,184.874 572,185.5C 571.5,215.498 571.333,245.498 571.5,275.5C 555.167,275.5 538.833,275.5 522.5,275.5C 522.5,200.5 522.5,125.5 522.5,50.5C 574.167,50.5 625.833,50.5 677.5,50.5C 677.823,63.7461 677.489,76.9128 676.5,90C 660.592,90.824 644.759,90.6573 629,89.5C 619.068,90.1553 609.235,90.822 599.5,91.5 Z"/></g>
<g><path style="opacity:1" fill="#d4b22a" d="M 348.5,163.5 C 348.691,168.899 348.191,174.233 347,179.5C 346.667,178.5 346.333,177.5 346,176.5C 343.667,178.167 341.333,179.833 339,181.5C 338.586,181.043 338.086,180.709 337.5,180.5C 334.736,181.761 332.403,183.595 330.5,186C 329.216,186.684 328.049,186.517 327,185.5C 326.951,188.416 325.784,189.416 323.5,188.5C 322.126,189.711 320.626,190.711 319,191.5C 318.228,191.355 317.561,191.022 317,190.5C 313.024,192.323 309.357,194.656 306,197.5C 303.546,195.987 301.879,196.654 301,199.5C 300.667,199.167 300.333,198.833 300,198.5C 298.665,200.605 296.998,201.271 295,200.5C 294.218,203.188 292.718,204.188 290.5,203.5C 286.88,205.893 283.047,207.893 279,209.5C 277.187,208.391 276.354,209.058 276.5,211.5C 268.754,215.034 260.754,218.034 252.5,220.5C 250.291,221.063 248.791,222.396 248,224.5C 247.722,223.584 247.222,222.918 246.5,222.5C 246.573,220.973 245.906,219.973 244.5,219.5C 244.5,217.167 244.5,214.833 244.5,212.5C 245.473,211.209 246.473,211.209 247.5,212.5C 248.287,211.758 248.953,210.925 249.5,210C 253.284,208.296 257.118,206.796 261,205.5C 261.333,206.167 261.667,206.833 262,207.5C 263.925,206.12 265.759,204.62 267.5,203C 269.269,201.981 270.936,201.814 272.5,202.5C 274.5,200.833 276.5,199.167 278.5,197.5C 280.467,198.682 281.8,198.015 282.5,195.5C 283.192,196.025 283.692,196.692 284,197.5C 289.193,194.874 294.193,191.874 299,188.5C 300.716,189.552 301.716,188.886 302,186.5C 302.414,186.957 302.914,187.291 303.5,187.5C 314.83,181.35 326.497,175.85 338.5,171C 340.336,169.581 342.336,168.414 344.5,167.5C 345.598,163.639 346.431,163.639 347,167.5C 347.21,165.942 347.71,164.609 348.5,163.5 Z"/></g>
<g><path style="opacity:1" fill="#9cc1a4" d="M 1091.5,203.5 C 1098.31,202.509 1105.31,202.175 1112.5,202.5C 1112.9,207.783 1112.24,212.783 1110.5,217.5C 1111.13,212.859 1111.46,208.193 1111.5,203.5C 1104.83,203.5 1098.17,203.5 1091.5,203.5 Z"/></g>
<g><path style="opacity:1" fill="#a8ccb5" d="M 227.5,161.5 C 228.209,160.596 229.209,160.263 230.5,160.5C 230.273,222.669 229.606,284.669 228.5,346.5C 228.5,328.5 228.5,310.5 228.5,292.5C 228.5,268.833 228.5,245.167 228.5,221.5C 229.166,211.672 229.5,201.672 229.5,191.5C 229.499,181.144 228.832,171.144 227.5,161.5 Z"/></g>
<g><path style="opacity:1" fill="#bf9227" d="M 350.5,175.5 C 350.5,182.5 350.5,189.5 350.5,196.5C 315.347,213.244 280.347,230.244 245.5,247.5C 244.506,238.348 244.173,229.015 244.5,219.5C 245.906,219.973 246.573,220.973 246.5,222.5C 246.063,225.807 246.73,228.807 248.5,231.5C 253.599,230.314 258.599,228.814 263.5,227C 270.163,223.883 276.663,220.383 283,216.5C 283.333,216.833 283.667,217.167 284,217.5C 285.707,216.056 287.54,214.723 289.5,213.5C 290.086,213.709 290.586,214.043 291,214.5C 292.718,213.15 294.552,211.983 296.5,211C 295.007,209.844 295.174,209.01 297,208.5C 298.722,208.611 298.888,209.111 297.5,210C 298.448,210.483 299.448,210.649 300.5,210.5C 300.5,209.167 300.5,207.833 300.5,206.5C 303.601,206.308 306.601,205.642 309.5,204.5C 311.214,205.609 311.881,204.942 311.5,202.5C 315.573,201.633 319.573,200.466 323.5,199C 324.56,197.702 325.726,196.535 327,195.5C 331.783,194.794 336.283,193.294 340.5,191C 343.006,189.493 344.672,187.327 345.5,184.5C 346.425,185.641 347.259,185.641 348,184.5C 347.93,181.008 348.763,178.008 350.5,175.5 Z"/></g>
<g><path style="opacity:1" fill="#006f2a" d="M 349.5,230.5 C 349.5,231.167 349.5,231.833 349.5,232.5C 349.167,232.5 348.833,232.5 348.5,232.5C 347.118,262.82 346.118,300.487 345.5,345.5C 313.5,345.5 281.5,345.5 249.5,345.5C 250.002,316.832 250.669,288.165 251.5,259.5C 282.841,244.77 314.175,229.937 345.5,215C 346.793,214.51 348.127,214.343 349.5,214.5C 349.5,219.833 349.5,225.167 349.5,230.5 Z"/></g>
<g><path style="opacity:1" fill="#0e6018" d="M 422.5,49.5 C 440.167,49.5 457.833,49.5 475.5,49.5C 475.5,125.5 475.5,201.5 475.5,277.5C 457.5,277.5 439.5,277.5 421.5,277.5C 421.3,201.496 421.633,125.496 422.5,49.5 Z"/></g>
<g><path style="opacity:1" fill="#006f2a" d="M 425.5,50.5 C 441.5,50.5 457.5,50.5 473.5,50.5C 473.5,125.833 473.5,201.167 473.5,276.5C 456.833,276.5 440.167,276.5 423.5,276.5C 423.008,201.143 423.675,125.81 425.5,50.5 Z"/></g>
<g><path style="opacity:1" fill="#99c1a5" d="M 574.5,186.5 C 574.5,217.167 574.5,247.833 574.5,278.5C 556.326,278.83 538.326,278.497 520.5,277.5C 538.167,277.5 555.833,277.5 573.5,277.5C 573.169,246.995 573.502,216.662 574.5,186.5 Z"/></g>
<g><path style="opacity:1" fill="#166520" d="M 798.5,49.5 C 821.805,48.9941 843.139,55.1607 862.5,68C 883,86.5222 891,109.356 886.5,136.5C 887.82,86.3118 863.486,58.1452 813.5,52C 780.168,51.5 746.835,51.3333 713.5,51.5C 713.859,126.516 713.193,201.516 711.5,276.5C 726.833,276.5 742.167,276.5 757.5,276.5C 757.333,249.831 757.5,223.165 758,196.5C 758.833,195.667 759.667,194.833 760.5,194C 782.532,193.921 804.532,193.254 826.5,192C 839.84,189.827 851.84,184.661 862.5,176.5C 863.107,176.624 863.44,176.957 863.5,177.5C 853.802,185.306 842.802,190.806 830.5,194C 824.527,194.907 818.527,195.573 812.5,196C 794.836,196.5 777.17,196.667 759.5,196.5C 759.5,223.5 759.5,250.5 759.5,277.5C 742.833,277.5 726.167,277.5 709.5,277.5C 709.169,254.661 709.503,231.994 710.5,209.5C 711.499,156.336 711.832,103.003 711.5,49.5C 740.5,49.5 769.5,49.5 798.5,49.5 Z"/></g>
<g><path style="opacity:1" fill="#1b6522" d="M 960.5,197.5 C 971.102,234.812 995.435,248.979 1033.5,240C 1044.85,235.984 1053.02,228.484 1058,217.5C 1059.12,212.839 1060.62,208.339 1062.5,204C 1072.16,203.5 1081.83,203.334 1091.5,203.5C 1098.17,203.5 1104.83,203.5 1111.5,203.5C 1111.46,208.193 1111.13,212.859 1110.5,217.5C 1105.37,233.076 1096.71,246.409 1084.5,257.5C 1084.06,257.565 1083.73,257.399 1083.5,257C 1098.7,243.109 1107.36,225.943 1109.5,205.5C 1094.13,205.395 1078.8,206.061 1063.5,207.5C 1060.97,217.725 1055.97,226.559 1048.5,234C 1031.82,245.336 1013.82,248.002 994.5,242C 973.477,232.984 961.644,217.151 959,194.5C 959.232,195.737 959.732,196.737 960.5,197.5 Z"/></g>
<g><path style="opacity:1" fill="#046f2b" d="M 124.5,317.5 C 124.167,317.5 123.833,317.5 123.5,317.5C 123.666,309.826 123.5,302.159 123,294.5C 122.667,296.167 122.333,297.833 122,299.5C 121.5,314.83 121.333,330.163 121.5,345.5C 98.5143,346.4 75.5143,346.733 52.5,346.5C 53.1464,333.788 52.4797,321.455 50.5,309.5C 58.8788,305.818 67.2122,301.984 75.5,298C 92.2481,291.586 108.915,285.086 125.5,278.5C 125.072,291.497 124.738,304.497 124.5,317.5 Z"/></g>
<g><path style="opacity:1" fill="#7da88c" d="M 536.5,309.5 C 726.999,308.5 917.666,308.167 1108.5,308.5C 1108.5,307.167 1108.5,305.833 1108.5,304.5C 878.834,305.343 649.168,305.677 419.5,305.5C 649.333,304.519 879.333,303.853 1109.5,303.5C 1109.5,305.5 1109.5,307.5 1109.5,309.5C 918.5,309.5 727.5,309.5 536.5,309.5 Z"/></g>
<g><path style="opacity:1" fill="#1a6534" d="M 536.5,309.5 C 497.5,309.5 458.5,309.5 419.5,309.5C 419.5,308.167 419.5,306.833 419.5,305.5C 649.168,305.677 878.834,305.343 1108.5,304.5C 1108.5,305.833 1108.5,307.167 1108.5,308.5C 917.666,308.167 726.999,308.5 536.5,309.5 Z"/></g>
<g><path style="opacity:1" fill="#13611c" d="M 228.5,221.5 C 228.5,245.167 228.5,268.833 228.5,292.5C 227.503,310.326 227.17,328.326 227.5,346.5C 198.494,346.406 169.494,346.74 140.5,347.5C 140.555,298.662 141.221,249.995 142.5,201.5C 143.376,201.369 144.043,201.702 144.5,202.5C 143.505,250.124 143.172,297.791 143.5,345.5C 170.833,345.5 198.167,345.5 225.5,345.5C 225.326,288.486 226.159,231.486 228,174.5C 228.5,190.163 228.667,205.83 228.5,221.5 Z"/></g>
<g><path style="opacity:1" fill="#619f72" d="M 228.5,292.5 C 228.5,310.5 228.5,328.5 228.5,346.5C 210.02,347.917 191.353,348.584 172.5,348.5C 161.661,348.5 150.995,348.167 140.5,347.5C 169.494,346.74 198.494,346.406 227.5,346.5C 227.17,328.326 227.503,310.326 228.5,292.5 Z"/></g>
<g><path style="opacity:1" fill="#186535" d="M 515.5,331.5 C 512.193,326.674 513.527,324.84 519.5,326C 521.492,330.152 520.159,331.985 515.5,331.5 Z"/></g>
<g><path style="opacity:1" fill="#186433" d="M 574.5,331.5 C 573.5,331.5 572.5,331.5 571.5,331.5C 568.337,326.154 569.837,324.487 576,326.5C 576.64,328.543 576.14,330.21 574.5,331.5 Z"/></g>
<g><path style="opacity:1" fill="#186734" d="M 815.5,331.5 C 814.167,331.5 812.833,331.5 811.5,331.5C 808.337,326.154 809.837,324.487 816,326.5C 816.64,328.265 816.473,329.932 815.5,331.5 Z"/></g>
<g><path style="opacity:1" fill="#186635" d="M 922.5,326.5 C 926.514,326.334 930.514,326.501 934.5,327C 938.077,328.737 939.744,331.571 939.5,335.5C 937.167,335.5 934.833,335.5 932.5,335.5C 932.5,334.5 932.5,333.5 932.5,332.5C 926.947,330.643 923.614,332.643 922.5,338.5C 923.345,343.844 926.345,345.677 931.5,344C 933.164,340.864 935.831,339.697 939.5,340.5C 939.31,347.192 935.81,350.859 929,351.5C 918.024,349.7 914.024,343.367 917,332.5C 918.36,329.977 920.193,327.977 922.5,326.5 Z"/></g>
<g><path style="opacity:1" fill="#186735" d="M 1068.5,331.5 C 1065.89,327.249 1067.22,325.415 1072.5,326C 1074.01,326.837 1074.51,328.004 1074,329.5C 1072.56,331.155 1070.72,331.822 1068.5,331.5 Z"/></g>
<g><path style="opacity:1" fill="#196835" d="M 423.5,326.5 C 425.833,326.5 428.167,326.5 430.5,326.5C 430.666,334.507 430.5,342.507 430,350.5C 428.204,351.767 426.371,351.767 424.5,350.5C 423.502,342.528 423.169,334.528 423.5,326.5 Z"/></g>
<g><path style="opacity:1" fill="#196736" d="M 452.5,326.5 C 454.5,326.5 456.5,326.5 458.5,326.5C 458.334,332.509 458.501,338.509 459,344.5C 462.128,346.701 462.295,349.034 459.5,351.5C 457.051,351.02 454.885,350.02 453,348.5C 452.5,341.174 452.334,333.841 452.5,326.5 Z"/></g>
<g><path style="opacity:1" fill="#196837" d="M 551.5,326.5 C 557.167,326.5 562.833,326.5 568.5,326.5C 568.5,328.167 568.5,329.833 568.5,331.5C 565.167,331.5 561.833,331.5 558.5,331.5C 558.5,332.833 558.5,334.167 558.5,335.5C 561.5,335.5 564.5,335.5 567.5,335.5C 567.5,337.5 567.5,339.5 567.5,341.5C 564.5,341.5 561.5,341.5 558.5,341.5C 558.817,344.572 558.484,347.572 557.5,350.5C 555.629,351.767 553.796,351.767 552,350.5C 551.5,342.507 551.334,334.507 551.5,326.5 Z"/></g>
<g><path style="opacity:1" fill="#196335" d="M 687.5,326.5 C 692.511,326.334 697.511,326.501 702.5,327C 707.244,329.598 708.578,333.431 706.5,338.5C 703.209,341.765 699.209,343.265 694.5,343C 696.842,349.652 694.675,352.152 688,350.5C 687.5,342.507 687.334,334.507 687.5,326.5 Z M 694.5,332.5 C 696.017,331.265 697.684,331.265 699.5,332.5C 700.714,335.493 699.548,337.16 696,337.5C 695.5,337.167 695,336.833 694.5,336.5C 695.705,335.005 695.705,333.672 694.5,332.5 Z"/></g>
<g><path style="opacity:1" fill="#186433" d="M 880.5,326.5 C 882.833,326.5 885.167,326.5 887.5,326.5C 887.056,333.95 887.723,341.283 889.5,348.5C 889.167,349.5 888.833,350.5 888.5,351.5C 885.724,351.054 883.224,350.054 881,348.5C 880.5,341.174 880.334,333.841 880.5,326.5 Z"/></g>
<g><path style="opacity:1" fill="#196633" d="M 438.5,331.5 C 442.459,331.071 445.959,332.071 449,334.5C 449.863,336.749 449.363,338.582 447.5,340C 451.072,342.626 451.405,345.626 448.5,349C 443.239,352.447 438.406,351.947 434,347.5C 433.51,346.207 433.343,344.873 433.5,343.5C 438.421,343.865 438.755,342.865 434.5,340.5C 432.414,335.849 433.747,332.849 438.5,331.5 Z M 439.5,337.5 C 440.708,336.218 442.042,336.218 443.5,337.5C 442.443,337.906 441.109,337.906 439.5,337.5 Z M 439.5,343.5 C 440.922,343.709 442.255,344.209 443.5,345C 441.537,345.844 440.204,345.344 439.5,343.5 Z"/></g>
<g><path style="opacity:1" fill="#1a6533" d="M 482.5,331.5 C 485.079,331.083 487.246,331.75 489,333.5C 492.661,330.751 495.995,331.084 499,334.5C 503.373,330.241 507.373,330.574 511,335.5C 511.829,340.533 511.662,345.533 510.5,350.5C 509.232,351.428 507.899,351.595 506.5,351C 505.703,347.255 505.203,343.421 505,339.5C 503.951,337.893 502.451,337.227 500.5,337.5C 500.826,341.884 500.492,346.217 499.5,350.5C 497.629,351.767 495.796,351.767 494,350.5C 493.501,346.179 493.334,341.846 493.5,337.5C 491.571,337.231 489.905,337.731 488.5,339C 489.622,342.409 489.789,345.909 489,349.5C 487.534,351.325 485.701,351.825 483.5,351C 482.522,344.59 482.189,338.09 482.5,331.5 Z"/></g>
<g><path style="opacity:1" fill="#1a6534" d="M 529.5,331.5 C 536.167,330.382 539.834,333.048 540.5,339.5C 537.084,339.07 533.75,338.57 530.5,338C 529.409,340.064 529.242,342.231 530,344.5C 531.356,345.38 532.856,345.714 534.5,345.5C 534.78,341.775 536.78,340.608 540.5,342C 541.121,347.571 538.455,350.738 532.5,351.5C 528.766,351.212 525.933,349.545 524,346.5C 523.333,342.833 523.333,339.167 524,335.5C 525.5,333.531 527.333,332.198 529.5,331.5 Z"/></g>
<g><path style="opacity:1" fill="#196634" d="M 777.5,331.5 C 783.426,330.294 787.426,332.46 789.5,338C 788.643,338.689 787.977,339.522 787.5,340.5C 790.568,347.017 788.401,350.683 781,351.5C 775.693,351.357 772.859,348.691 772.5,343.5C 774.199,343.66 775.866,343.494 777.5,343C 773.234,341.634 771.734,338.801 773,334.5C 774.652,333.601 776.152,332.601 777.5,331.5 Z M 778.5,337.5 C 779.708,336.218 781.042,336.218 782.5,337.5C 781.443,337.906 780.109,337.906 778.5,337.5 Z M 778.5,343.5 C 780.103,343.312 781.437,343.812 782.5,345C 780.537,345.844 779.204,345.344 778.5,343.5 Z"/></g>
<g><path style="opacity:1" fill="#196635" d="M 796.5,331.5 C 800.192,330.971 803.358,331.971 806,334.5C 806.139,338.739 806.472,343.072 807,347.5C 802.457,351.548 797.623,352.048 792.5,349C 791.139,347.416 790.472,345.582 790.5,343.5C 792.199,343.66 793.866,343.494 795.5,343C 791.787,341.309 790.621,338.475 792,334.5C 793.409,333.219 794.909,332.219 796.5,331.5 Z M 796.5,344.5 C 798.089,343.379 799.756,343.546 801.5,345C 799.735,345.64 798.068,345.473 796.5,344.5 Z"/></g>
<g><path style="opacity:1" fill="#196534" d="M 866.5,331.5 C 875.412,330.246 879.078,334.079 877.5,343C 877.475,345.755 877.141,348.422 876.5,351C 874.299,351.825 872.466,351.325 871,349.5C 865.557,352.35 861.723,350.85 859.5,345C 859.89,342.541 861.224,340.874 863.5,340C 860.44,335.833 861.44,333 866.5,331.5 Z M 867.5,336.5 C 868.978,336.238 870.311,336.571 871.5,337.5C 870.833,337.833 870.167,338.167 869.5,338.5C 868.287,338.253 867.62,337.586 867.5,336.5 Z M 866.5,343.5 C 868.199,343.34 869.866,343.506 871.5,344C 869.415,346.139 867.749,345.972 866.5,343.5 Z"/></g>
<g><path style="opacity:1" fill="#196735" d="M 948.5,331.5 C 959.176,331.972 962.676,337.306 959,347.5C 952.686,352.675 947.019,352.008 942,345.5C 940.189,338.796 942.355,334.129 948.5,331.5 Z M 948.5,337.5 C 950.167,337.5 951.833,337.5 953.5,337.5C 953.663,339.857 953.497,342.19 953,344.5C 951.667,345.833 950.333,345.833 949,344.5C 948.503,342.19 948.337,339.857 948.5,337.5 Z"/></g>
<g><path style="opacity:1" fill="#1b6735" d="M 1046.5,331.5 C 1049.08,331.083 1051.25,331.75 1053,333.5C 1057.78,330.445 1061.45,331.445 1064,336.5C 1064.67,341.167 1064.67,345.833 1064,350.5C 1062.27,351.576 1060.44,351.743 1058.5,351C 1057.53,346.599 1057.2,342.099 1057.5,337.5C 1056.17,337.5 1054.83,337.5 1053.5,337.5C 1053.67,341.846 1053.5,346.179 1053,350.5C 1051.27,351.576 1049.44,351.743 1047.5,351C 1046.52,344.59 1046.19,338.09 1046.5,331.5 Z"/></g>
<g><path style="opacity:1" fill="#1a6635" d="M 1077.5,327.5 C 1082.12,326.309 1084.62,327.975 1085,332.5C 1087.74,331.39 1090.57,331.223 1093.5,332C 1094.86,335.073 1096.03,338.24 1097,341.5C 1098.26,338.539 1099.43,335.539 1100.5,332.5C 1102.4,331.534 1104.4,331.201 1106.5,331.5C 1104.75,339.826 1102.09,347.826 1098.5,355.5C 1095.73,357.129 1092.73,357.795 1089.5,357.5C 1089.5,355.5 1089.5,353.5 1089.5,351.5C 1091.43,351.769 1093.1,351.269 1094.5,350C 1092.73,346.281 1091.06,342.447 1089.5,338.5C 1087.95,337.548 1086.29,337.215 1084.5,337.5C 1084.5,340.167 1084.5,342.833 1084.5,345.5C 1086.95,345.085 1088.28,346.085 1088.5,348.5C 1088.17,350.167 1087.17,351.167 1085.5,351.5C 1081.94,351.333 1079.44,349.666 1078,346.5C 1077.7,342.389 1076.86,338.389 1075.5,334.5C 1076.48,332.223 1077.14,329.89 1077.5,327.5 Z"/></g>
<g><path style="opacity:1" fill="#196534" d="M 468.5,331.5 C 472.459,331.071 475.959,332.071 479,334.5C 479.806,340.084 479.639,345.584 478.5,351C 476.251,351.863 474.418,351.363 473,349.5C 465.015,352.823 461.681,350.156 463,341.5C 464.678,340.318 464.512,339.152 462.5,338C 463.364,334.64 465.364,332.474 468.5,331.5 Z M 469.5,336.5 C 474.778,337.605 474.612,338.605 469,339.5C 468.53,338.423 468.697,337.423 469.5,336.5 Z M 468.5,343.5 C 470.199,343.34 471.866,343.506 473.5,344C 471.415,346.139 469.749,345.972 468.5,343.5 Z"/></g>
<g><path style="opacity:1" fill="#1a6636" d="M 515.5,331.5 C 516.919,332.451 518.585,332.784 520.5,332.5C 520.666,338.509 520.499,344.509 520,350.5C 518.333,351.833 516.667,351.833 515,350.5C 514.18,343.986 514.347,337.653 515.5,331.5 Z"/></g>
<g><path style="opacity:1" fill="#196735" d="M 605.5,331.5 C 610.181,330.699 614.014,332.033 617,335.5C 617.804,340.751 617.637,345.918 616.5,351C 614.251,351.863 612.418,351.363 611,349.5C 606.874,352.027 603.207,351.36 600,347.5C 599.245,344.503 600.078,342.003 602.5,340C 600.702,336.142 601.702,333.309 605.5,331.5 Z M 607.5,336.5 C 608.675,336.281 609.675,336.614 610.5,337.5C 607.272,340.259 606.272,339.926 607.5,336.5 Z M 606.5,343.5 C 607.978,343.238 609.311,343.571 610.5,344.5C 609.833,344.833 609.167,345.167 608.5,345.5C 607.287,345.253 606.62,344.586 606.5,343.5 Z"/></g>
<g><path style="opacity:1" fill="#196534" d="M 646.5,331.5 C 649.607,331.351 652.607,331.851 655.5,333C 657.451,334.734 658.451,336.901 658.5,339.5C 654.616,339.576 650.95,338.91 647.5,337.5C 647.5,340.167 647.5,342.833 647.5,345.5C 648.833,345.5 650.167,345.5 651.5,345.5C 651.477,342.879 652.811,341.545 655.5,341.5C 657.266,341.434 658.266,342.268 658.5,344C 655.859,350.66 651.193,352.66 644.5,350C 640.741,346.257 639.574,341.757 641,336.5C 642.107,333.887 643.94,332.22 646.5,331.5 Z"/></g>
<g><path style="opacity:1" fill="#196635" d="M 665.5,331.5 C 675.483,330.983 679.65,335.649 678,345.5C 673.127,352.338 667.46,353.004 661,347.5C 657.834,340.646 659.334,335.313 665.5,331.5 Z M 667.5,336.5 C 669.103,336.312 670.437,336.812 671.5,338C 669.833,338.667 668.167,338.667 666.5,338C 667.056,337.617 667.389,337.117 667.5,336.5 Z M 666.5,344.5 C 668.035,343.212 669.701,343.212 671.5,344.5C 669.833,345.666 668.166,345.666 666.5,344.5 Z"/></g>
<g><path style="opacity:1" fill="#196535" d="M 744.5,326.5 C 747.167,326.5 749.833,326.5 752.5,326.5C 751.494,329.77 751.661,333.104 753,336.5C 757.682,330.72 763.015,330.053 769,334.5C 774.2,343.113 771.867,348.779 762,351.5C 754.129,350.103 750.962,345.436 752.5,337.5C 751.127,337.343 749.793,337.51 748.5,338C 749.798,342.118 749.798,346.285 748.5,350.5C 746.629,351.767 744.796,351.767 743,350.5C 742.501,346.179 742.334,341.846 742.5,337.5C 741.5,337.5 740.5,337.5 739.5,337.5C 741.038,345.436 737.871,350.103 730,351.5C 722.129,350.103 718.962,345.436 720.5,337.5C 718.856,337.286 717.356,337.62 716,338.5C 715.8,342.753 715.3,346.92 714.5,351C 712.559,351.743 710.726,351.576 709,350.5C 708.191,344.251 708.358,338.084 709.5,332C 713.206,332.524 716.873,332.358 720.5,331.5C 719.813,337.599 721.146,338.099 724.5,333C 730.231,330.479 735.064,331.646 739,336.5C 739.202,334.744 739.702,333.078 740.5,331.5C 741.086,331.709 741.586,332.043 742,332.5C 742.236,330.189 743.069,328.189 744.5,326.5 Z M 760.5,336.5 C 762.103,336.312 763.437,336.812 764.5,338C 762.833,338.667 761.167,338.667 759.5,338C 760.056,337.617 760.389,337.117 760.5,336.5 Z M 727.5,337.5 C 729.167,337.5 730.833,337.5 732.5,337.5C 732.663,339.857 732.497,342.19 732,344.5C 730.667,345.833 729.333,345.833 728,344.5C 727.503,342.19 727.337,339.857 727.5,337.5 Z M 759.5,344.5 C 760.946,343.387 762.613,343.22 764.5,344C 762.977,345.788 761.31,345.955 759.5,344.5 Z"/></g>
<g><path style="opacity:1" fill="#196635" d="M 825.5,331.5 C 835.562,331.6 839.395,336.6 837,346.5C 831.333,353.167 825.667,353.167 820,346.5C 817.363,339.787 819.196,334.787 825.5,331.5 Z M 826.5,337.5 C 831.068,337.083 832.568,339.083 831,343.5C 829.688,345.658 828.022,345.991 826,344.5C 825.297,342.071 825.463,339.738 826.5,337.5 Z"/></g>
<g><path style="opacity:1" fill="#196634" d="M 895.5,331.5 C 899.516,330.9 903.016,331.9 906,334.5C 905.086,338.642 905.42,342.642 907,346.5C 905.353,349.71 902.686,351.377 899,351.5C 896.876,350.773 894.709,350.106 892.5,349.5C 890.914,347.827 890.247,345.827 890.5,343.5C 892.199,343.66 893.866,343.494 895.5,343C 891.234,341.634 889.734,338.801 891,334.5C 892.652,333.601 894.152,332.601 895.5,331.5 Z M 896.5,337.5 C 897.708,336.218 899.042,336.218 900.5,337.5C 899.443,337.906 898.109,337.906 896.5,337.5 Z M 896.5,343.5 C 898.103,343.312 899.437,343.812 900.5,345C 898.537,345.844 897.204,345.344 896.5,343.5 Z"/></g>
<g><path style="opacity:1" fill="#1a6533" d="M 962.5,331.5 C 965.079,331.083 967.246,331.75 969,333.5C 972.74,330.587 976.074,330.92 979,334.5C 983.95,330.025 987.95,330.691 991,336.5C 991.667,341.167 991.667,345.833 991,350.5C 989.612,351.554 988.112,351.72 986.5,351C 985.703,347.255 985.203,343.421 985,339.5C 983.951,337.893 982.451,337.227 980.5,337.5C 980.666,341.514 980.499,345.514 980,349.5C 978.33,351.698 976.33,352.032 974,350.5C 973.501,346.179 973.334,341.846 973.5,337.5C 971.856,337.286 970.356,337.62 969,338.5C 968.667,342.5 968.333,346.5 968,350.5C 966.612,351.554 965.112,351.72 963.5,351C 962.522,344.59 962.189,338.09 962.5,331.5 Z"/></g>
<g><path style="opacity:1" fill="#1a6635" d="M 994.5,331.5 C 997.079,331.083 999.246,331.75 1001,333.5C 1004.61,330.731 1007.94,331.064 1011,334.5C 1014.61,330.523 1018.28,330.523 1022,334.5C 1022.67,339.833 1022.67,345.167 1022,350.5C 1020.61,351.554 1019.11,351.72 1017.5,351C 1016.53,346.599 1016.2,342.099 1016.5,337.5C 1014.86,337.286 1013.36,337.62 1012,338.5C 1011.67,342.5 1011.33,346.5 1011,350.5C 1009.33,351.833 1007.67,351.833 1006,350.5C 1005.5,346.179 1005.33,341.846 1005.5,337.5C 1003.86,337.286 1002.36,337.62 1001,338.5C 1000.67,342.5 1000.33,346.5 1000,350.5C 998.612,351.554 997.112,351.72 995.5,351C 994.522,344.59 994.189,338.09 994.5,331.5 Z"/></g>
<g><path style="opacity:1" fill="#1a6437" d="M 1068.5,331.5 C 1069.92,332.451 1071.59,332.784 1073.5,332.5C 1073.67,338.509 1073.5,344.509 1073,350.5C 1071.33,351.833 1069.67,351.833 1068,350.5C 1067.18,343.986 1067.35,337.653 1068.5,331.5 Z"/></g>
<g><path style="opacity:1" fill="#186534" d="M 571.5,331.5 C 572.5,332.833 573.5,332.833 574.5,331.5C 575.117,331.611 575.617,331.944 576,332.5C 576.667,338.5 576.667,344.5 576,350.5C 574,351.833 572,351.833 570,350.5C 569.333,344.5 569.333,338.5 570,332.5C 570.383,331.944 570.883,331.611 571.5,331.5 Z"/></g>
<g><path style="opacity:1" fill="#1a6334" d="M 580.5,331.5 C 584.043,332.306 587.543,332.306 591,331.5C 592.895,331.615 594.562,332.282 596,333.5C 597.57,339.053 597.903,344.719 597,350.5C 595.301,351.406 593.467,351.739 591.5,351.5C 591.666,347.486 591.499,343.486 591,339.5C 590.047,337.408 588.714,337.075 587,338.5C 586.667,342.5 586.333,346.5 586,350.5C 584,351.833 582,351.833 580,350.5C 579.21,344.085 579.376,337.752 580.5,331.5 Z"/></g>
<g><path style="opacity:1" fill="#186535" d="M 811.5,331.5 C 812.833,332.833 814.167,332.833 815.5,331.5C 816.653,337.653 816.82,343.986 816,350.5C 814.204,351.767 812.371,351.767 810.5,350.5C 809.336,344.528 809.17,338.528 810,332.5C 810.383,331.944 810.883,331.611 811.5,331.5 Z"/></g>
<g><path style="opacity:1" fill="#196435" d="M 840.5,331.5 C 844.088,332.029 847.588,332.029 851,331.5C 853.406,331.703 855.406,332.703 857,334.5C 857.667,339.833 857.667,345.167 857,350.5C 855.612,351.554 854.112,351.72 852.5,351C 851.533,346.599 851.2,342.099 851.5,337.5C 849.856,337.286 848.356,337.62 847,338.5C 846.667,342.5 846.333,346.5 846,350.5C 844.204,351.767 842.371,351.767 840.5,350.5C 839.21,344.112 839.21,337.778 840.5,331.5 Z"/></g>
<g><path style="opacity:1" fill="#1a6534" d="M 1026.5,331.5 C 1028.5,331.5 1030.5,331.5 1032.5,331.5C 1032.5,336.167 1032.5,340.833 1032.5,345.5C 1034.39,345.703 1035.89,345.037 1037,343.5C 1037.5,339.514 1037.67,335.514 1037.5,331.5C 1039.5,331.5 1041.5,331.5 1043.5,331.5C 1043.67,337.842 1043.5,344.175 1043,350.5C 1040.73,351.935 1038.73,351.602 1037,349.5C 1032.87,352.027 1029.21,351.36 1026,347.5C 1025.22,342.083 1025.39,336.75 1026.5,331.5 Z"/></g>
<g><path style="opacity:1" fill="#196434" d="M 620.5,331.5 C 624.043,332.306 627.543,332.306 631,331.5C 633.406,331.703 635.406,332.703 637,334.5C 637.806,340.084 637.639,345.584 636.5,351C 634.888,351.72 633.388,351.554 632,350.5C 631.667,346.5 631.333,342.5 631,338.5C 629.667,337.167 628.333,337.167 627,338.5C 626.667,342.5 626.333,346.5 626,350.5C 624,351.833 622,351.833 620,350.5C 619.21,344.085 619.376,337.752 620.5,331.5 Z"/></g>
<g><path style="opacity:1" fill="#10611b" d="M 349.5,230.5 C 349.5,225.167 349.5,219.833 349.5,214.5C 348.127,214.343 346.793,214.51 345.5,215C 314.175,229.937 282.841,244.77 251.5,259.5C 250.669,288.165 250.002,316.832 249.5,345.5C 281.5,345.5 313.5,345.5 345.5,345.5C 346.118,300.487 347.118,262.82 348.5,232.5C 348.5,270.833 348.5,309.167 348.5,347.5C 314.833,347.5 281.167,347.5 247.5,347.5C 247.931,317.835 248.264,288.168 248.5,258.5C 282.102,242.513 315.769,226.513 349.5,210.5C 350.818,217.322 350.818,223.989 349.5,230.5 Z"/></g>
<g><path style="opacity:1" fill="#0d580f" d="M 123.5,317.5 C 123.5,327.5 123.5,337.5 123.5,347.5C 100.994,347.169 78.6604,347.503 56.5,348.5C 54.5,348.5 52.5,348.5 50.5,348.5C 50.5,335.5 50.5,322.5 50.5,309.5C 52.4797,321.455 53.1464,333.788 52.5,346.5C 75.5143,346.733 98.5143,346.4 121.5,345.5C 121.333,330.163 121.5,314.83 122,299.5C 122.333,297.833 122.667,296.167 123,294.5C 123.5,302.159 123.666,309.826 123.5,317.5 Z"/></g>
<g><path style="opacity:1" fill="#6b9b6d" d="M 123.5,317.5 C 123.833,317.5 124.167,317.5 124.5,317.5C 124.5,327.833 124.5,338.167 124.5,348.5C 101.833,348.5 79.1667,348.5 56.5,348.5C 78.6604,347.503 100.994,347.169 123.5,347.5C 123.5,337.5 123.5,327.5 123.5,317.5 Z"/></g>
<g><path style="opacity:1" fill="#77a57d" d="M 348.5,232.5 C 348.833,232.5 349.167,232.5 349.5,232.5C 349.5,271.167 349.5,309.833 349.5,348.5C 315.167,348.5 280.833,348.5 246.5,348.5C 246.106,318.315 246.773,288.315 248.5,258.5C 248.264,288.168 247.931,317.835 247.5,347.5C 281.167,347.5 314.833,347.5 348.5,347.5C 348.5,309.167 348.5,270.833 348.5,232.5 Z"/></g>
</svg>
